<?xml version="1.0" encoding="utf-8"?>
<!-- Generator: Adobe Illustrator 21.0.0, SVG Export Plug-In . SVG Version: 6.00 Build 0)  -->
<svg version="1.1" id="Calque_1" xmlns="http://www.w3.org/2000/svg" xmlns:xlink="http://www.w3.org/1999/xlink" x="0px" y="0px"
	 viewBox="0 0 405 244.3" style="enable-background:new 0 0 405 244.3;" xml:space="preserve">
<style type="text/css">
	.st0{fill:#FFFFFF;}
</style>
<title>VSPlan de travail 1</title>
<path class="st0" d="M80.1,236L2.9,14.4L57.4,2.8l44.3,184.5L200.2,5.7h4.1l-73.2,234.1L80.1,236z"/>
<path class="st0" d="M402.5,175.9c-1.2,16.7-5.8,29.9-14,39.5c-8.1,9.6-18.8,16.7-30.8,20.4c-12.9,4.1-26.3,6.1-39.8,6
	c-10.1,0-21-2.6-32.8-7.9c-11.8-5.2-23.2-13.1-34.3-23.6c-11.1-10.5-20.8-23.7-29.1-39.6l2-2c7.9,6.1,16.2,11.5,25,16.3
	c8.5,4.7,17.3,8.8,26.4,12.4c7.9,3.1,16.1,5.7,24.3,7.7c7.5,1.7,13.6,2.6,18.2,2.6c9.1,0,16.9-2.1,23.2-6.4
	c6.3-4.3,10-11.4,10.9-21.3v-0.9c0-4.3-2.8-8.8-8.5-13.6c-6.9-5.7-14.3-10.8-22-15.3l-28.6-17.2c-10-6-19.5-12.3-28.4-18.8
	c-8.2-5.8-15.6-12.6-22-20.3c-5.7-7-8.6-14.3-8.6-21.9v-2.5c0-0.7,0.1-1.5,0.3-2.2c2.1-12.5,7.5-24.3,15.6-34.1
	c7.9-9.6,17.9-17.4,29.2-22.7c11-5.4,23.1-8.2,35.4-8.2c13.5,0.2,27,2.1,40.1,5.7c15.1,4.1,29.8,9.5,43.9,16.2l-16.3,47.5
	c-15.2-14.8-28.2-25.7-39.1-32.7s-21.2-10.5-30.9-10.5c-10.5,0-18.5,2.6-24,7.7c-5.5,5.1-8.7,13.7-9.5,25.8v0.9
	c0,4.5,2.2,8.9,6.7,13.4c5.4,5.2,11.3,9.7,17.7,13.6c7.4,4.6,15.5,9.2,24.3,14c8.8,4.8,17.7,9.7,26.5,14.9
	c8.5,4.9,16.6,10.3,24.3,16.3c6.8,5.1,12.8,11.2,17.8,18.1c4.3,5.9,6.7,13,6.7,20.3L402.5,175.9z"/>
</svg>
